<mxfile host="app.diagrams.net" agent="Mozilla/5.0 (Windows NT 10.0; Win64; x64) AppleWebKit/537.36 (KHTML, like Gecko) Chrome/141.0.0.0 Safari/537.36 Edg/141.0.0.0" version="28.2.7">
  <diagram name="Page-1" id="OOX40toq2x_BOQt93heo">
    <mxGraphModel dx="1546" dy="866" grid="1" gridSize="10" guides="1" tooltips="1" connect="1" arrows="1" fold="1" page="1" pageScale="1" pageWidth="850" pageHeight="1100" math="0" shadow="0">
      <root>
        <mxCell id="0" />
        <mxCell id="1" parent="0" />
        <mxCell id="TGGjeGu5kXZOAXNkHodr-1" value="Actor" style="shape=umlActor;verticalLabelPosition=bottom;verticalAlign=top;html=1;outlineConnect=0;" parent="1" vertex="1">
          <mxGeometry x="50" y="290" width="30" height="60" as="geometry" />
        </mxCell>
        <mxCell id="TGGjeGu5kXZOAXNkHodr-4" value="" style="endArrow=classic;html=1;rounded=0;" parent="1" source="TGGjeGu5kXZOAXNkHodr-1" target="TGGjeGu5kXZOAXNkHodr-9" edge="1">
          <mxGeometry width="50" height="50" relative="1" as="geometry">
            <mxPoint x="70" y="370" as="sourcePoint" />
            <mxPoint x="270" y="320" as="targetPoint" />
          </mxGeometry>
        </mxCell>
        <mxCell id="TGGjeGu5kXZOAXNkHodr-5" value="access to URL" style="edgeLabel;html=1;align=center;verticalAlign=middle;resizable=0;points=[];" parent="TGGjeGu5kXZOAXNkHodr-4" vertex="1" connectable="0">
          <mxGeometry x="-0.0695" y="1" relative="1" as="geometry">
            <mxPoint as="offset" />
          </mxGeometry>
        </mxCell>
        <mxCell id="TGGjeGu5kXZOAXNkHodr-6" value="" style="endArrow=classic;html=1;rounded=0;entryX=0;entryY=0.5;entryDx=0;entryDy=0;exitX=1;exitY=0.5;exitDx=0;exitDy=0;" parent="1" source="TGGjeGu5kXZOAXNkHodr-9" target="TGGjeGu5kXZOAXNkHodr-10" edge="1">
          <mxGeometry width="50" height="50" relative="1" as="geometry">
            <mxPoint x="470" y="322" as="sourcePoint" />
            <mxPoint x="510" y="320" as="targetPoint" />
          </mxGeometry>
        </mxCell>
        <mxCell id="TGGjeGu5kXZOAXNkHodr-7" value="click register" style="edgeLabel;html=1;align=center;verticalAlign=middle;resizable=0;points=[];" parent="TGGjeGu5kXZOAXNkHodr-6" vertex="1" connectable="0">
          <mxGeometry x="-0.0695" y="1" relative="1" as="geometry">
            <mxPoint as="offset" />
          </mxGeometry>
        </mxCell>
        <mxCell id="TGGjeGu5kXZOAXNkHodr-9" value="browser display web app" style="shape=process;whiteSpace=wrap;html=1;backgroundOutline=1;" parent="1" vertex="1">
          <mxGeometry x="190" y="290" width="120" height="60" as="geometry" />
        </mxCell>
        <mxCell id="TGGjeGu5kXZOAXNkHodr-10" value="browser display register page" style="shape=process;whiteSpace=wrap;html=1;backgroundOutline=1;" parent="1" vertex="1">
          <mxGeometry x="480" y="290" width="120" height="60" as="geometry" />
        </mxCell>
        <mxCell id="TGGjeGu5kXZOAXNkHodr-11" value="Submit ?" style="rhombus;whiteSpace=wrap;html=1;" parent="1" vertex="1">
          <mxGeometry x="680" y="600" width="80" height="80" as="geometry" />
        </mxCell>
        <mxCell id="TGGjeGu5kXZOAXNkHodr-12" value="" style="endArrow=classic;html=1;rounded=0;exitX=1;exitY=0.5;exitDx=0;exitDy=0;" parent="1" source="TGGjeGu5kXZOAXNkHodr-10" target="TGGjeGu5kXZOAXNkHodr-11" edge="1">
          <mxGeometry width="50" height="50" relative="1" as="geometry">
            <mxPoint x="520" y="440" as="sourcePoint" />
            <mxPoint x="570" y="390" as="targetPoint" />
            <Array as="points">
              <mxPoint x="720" y="320" />
            </Array>
          </mxGeometry>
        </mxCell>
        <mxCell id="TGGjeGu5kXZOAXNkHodr-13" value="Enter form info&amp;nbsp;" style="edgeLabel;html=1;align=center;verticalAlign=middle;resizable=0;points=[];" parent="TGGjeGu5kXZOAXNkHodr-12" vertex="1" connectable="0">
          <mxGeometry x="-0.3633" y="-2" relative="1" as="geometry">
            <mxPoint x="31" y="-7" as="offset" />
          </mxGeometry>
        </mxCell>
        <mxCell id="TGGjeGu5kXZOAXNkHodr-16" value="" style="endArrow=classic;html=1;rounded=0;exitX=0.5;exitY=1;exitDx=0;exitDy=0;entryX=0.5;entryY=0;entryDx=0;entryDy=0;" parent="1" source="TGGjeGu5kXZOAXNkHodr-11" target="TGGjeGu5kXZOAXNkHodr-54" edge="1">
          <mxGeometry width="50" height="50" relative="1" as="geometry">
            <mxPoint x="550" y="710" as="sourcePoint" />
            <mxPoint x="720" y="950" as="targetPoint" />
          </mxGeometry>
        </mxCell>
        <mxCell id="TGGjeGu5kXZOAXNkHodr-17" value="No" style="edgeLabel;html=1;align=center;verticalAlign=middle;resizable=0;points=[];" parent="TGGjeGu5kXZOAXNkHodr-16" vertex="1" connectable="0">
          <mxGeometry x="0.0185" y="-2" relative="1" as="geometry">
            <mxPoint as="offset" />
          </mxGeometry>
        </mxCell>
        <mxCell id="TGGjeGu5kXZOAXNkHodr-18" value="Email is fullfill" style="rhombus;whiteSpace=wrap;html=1;" parent="1" vertex="1">
          <mxGeometry x="390" y="600" width="130" height="80" as="geometry" />
        </mxCell>
        <mxCell id="TGGjeGu5kXZOAXNkHodr-19" value="" style="endArrow=classic;html=1;rounded=0;exitX=0;exitY=0.5;exitDx=0;exitDy=0;entryX=1;entryY=0.5;entryDx=0;entryDy=0;" parent="1" source="TGGjeGu5kXZOAXNkHodr-11" target="TGGjeGu5kXZOAXNkHodr-18" edge="1">
          <mxGeometry width="50" height="50" relative="1" as="geometry">
            <mxPoint x="520" y="600" as="sourcePoint" />
            <mxPoint x="570" y="550" as="targetPoint" />
            <Array as="points">
              <mxPoint x="650" y="640" />
            </Array>
          </mxGeometry>
        </mxCell>
        <mxCell id="TGGjeGu5kXZOAXNkHodr-20" value="Last name is fullfill" style="rhombus;whiteSpace=wrap;html=1;" parent="1" vertex="1">
          <mxGeometry x="390" y="480" width="130" height="80" as="geometry" />
        </mxCell>
        <mxCell id="TGGjeGu5kXZOAXNkHodr-21" value="First name is fullfill" style="rhombus;whiteSpace=wrap;html=1;" parent="1" vertex="1">
          <mxGeometry x="380" y="360" width="140" height="80" as="geometry" />
        </mxCell>
        <mxCell id="TGGjeGu5kXZOAXNkHodr-22" value="Password &amp;amp; confirm password is fullfill" style="rhombus;whiteSpace=wrap;html=1;" parent="1" vertex="1">
          <mxGeometry x="390" y="720" width="130" height="80" as="geometry" />
        </mxCell>
        <mxCell id="TGGjeGu5kXZOAXNkHodr-23" value="" style="endArrow=classic;html=1;rounded=0;exitX=0;exitY=0.5;exitDx=0;exitDy=0;entryX=1;entryY=0.5;entryDx=0;entryDy=0;" parent="1" source="TGGjeGu5kXZOAXNkHodr-11" target="TGGjeGu5kXZOAXNkHodr-22" edge="1">
          <mxGeometry width="50" height="50" relative="1" as="geometry">
            <mxPoint x="730" y="650" as="sourcePoint" />
            <mxPoint x="600" y="810" as="targetPoint" />
            <Array as="points">
              <mxPoint x="650" y="760" />
            </Array>
          </mxGeometry>
        </mxCell>
        <mxCell id="TGGjeGu5kXZOAXNkHodr-24" value="" style="endArrow=classic;html=1;rounded=0;exitX=0;exitY=0.5;exitDx=0;exitDy=0;" parent="1" source="TGGjeGu5kXZOAXNkHodr-11" target="TGGjeGu5kXZOAXNkHodr-20" edge="1">
          <mxGeometry width="50" height="50" relative="1" as="geometry">
            <mxPoint x="650" y="480" as="sourcePoint" />
            <mxPoint x="520" y="520" as="targetPoint" />
            <Array as="points">
              <mxPoint x="650" y="520" />
            </Array>
          </mxGeometry>
        </mxCell>
        <mxCell id="TGGjeGu5kXZOAXNkHodr-25" value="" style="endArrow=classic;html=1;rounded=0;exitX=0;exitY=0.5;exitDx=0;exitDy=0;entryX=1;entryY=0.5;entryDx=0;entryDy=0;" parent="1" source="TGGjeGu5kXZOAXNkHodr-11" target="TGGjeGu5kXZOAXNkHodr-21" edge="1">
          <mxGeometry width="50" height="50" relative="1" as="geometry">
            <mxPoint x="700" y="480" as="sourcePoint" />
            <mxPoint x="570" y="640" as="targetPoint" />
            <Array as="points">
              <mxPoint x="650" y="400" />
            </Array>
          </mxGeometry>
        </mxCell>
        <mxCell id="TGGjeGu5kXZOAXNkHodr-29" value="Password &amp;amp; Confirm password is matched ?" style="rhombus;whiteSpace=wrap;html=1;" parent="1" vertex="1">
          <mxGeometry x="390" y="850" width="130" height="80" as="geometry" />
        </mxCell>
        <mxCell id="TGGjeGu5kXZOAXNkHodr-30" value="Display error message&lt;br&gt;&amp;nbsp;and retry ?" style="rhombus;whiteSpace=wrap;html=1;" parent="1" vertex="1">
          <mxGeometry x="130" y="600" width="160" height="80" as="geometry" />
        </mxCell>
        <mxCell id="TGGjeGu5kXZOAXNkHodr-31" value="" style="endArrow=classic;html=1;rounded=0;exitX=0;exitY=0.5;exitDx=0;exitDy=0;entryX=1;entryY=0.5;entryDx=0;entryDy=0;" parent="1" source="TGGjeGu5kXZOAXNkHodr-21" target="TGGjeGu5kXZOAXNkHodr-30" edge="1">
          <mxGeometry width="50" height="50" relative="1" as="geometry">
            <mxPoint x="40" y="710" as="sourcePoint" />
            <mxPoint x="-120" y="710" as="targetPoint" />
            <Array as="points">
              <mxPoint x="300" y="480" />
            </Array>
          </mxGeometry>
        </mxCell>
        <mxCell id="TGGjeGu5kXZOAXNkHodr-37" value="No" style="edgeLabel;html=1;align=center;verticalAlign=middle;resizable=0;points=[];" parent="TGGjeGu5kXZOAXNkHodr-31" vertex="1" connectable="0">
          <mxGeometry x="-0.4735" relative="1" as="geometry">
            <mxPoint as="offset" />
          </mxGeometry>
        </mxCell>
        <mxCell id="TGGjeGu5kXZOAXNkHodr-32" value="" style="endArrow=classic;html=1;rounded=0;exitX=0;exitY=0.5;exitDx=0;exitDy=0;entryX=1;entryY=0.5;entryDx=0;entryDy=0;" parent="1" source="TGGjeGu5kXZOAXNkHodr-22" target="TGGjeGu5kXZOAXNkHodr-30" edge="1">
          <mxGeometry width="50" height="50" relative="1" as="geometry">
            <mxPoint x="320" y="760" as="sourcePoint" />
            <mxPoint x="160" y="880" as="targetPoint" />
            <Array as="points">
              <mxPoint x="320" y="720" />
            </Array>
          </mxGeometry>
        </mxCell>
        <mxCell id="TGGjeGu5kXZOAXNkHodr-40" value="No" style="edgeLabel;html=1;align=center;verticalAlign=middle;resizable=0;points=[];" parent="TGGjeGu5kXZOAXNkHodr-32" vertex="1" connectable="0">
          <mxGeometry x="-0.1551" relative="1" as="geometry">
            <mxPoint as="offset" />
          </mxGeometry>
        </mxCell>
        <mxCell id="TGGjeGu5kXZOAXNkHodr-33" value="" style="endArrow=classic;html=1;rounded=0;exitX=0;exitY=0.5;exitDx=0;exitDy=0;entryX=1;entryY=0.5;entryDx=0;entryDy=0;" parent="1" source="TGGjeGu5kXZOAXNkHodr-18" target="TGGjeGu5kXZOAXNkHodr-30" edge="1">
          <mxGeometry width="50" height="50" relative="1" as="geometry">
            <mxPoint x="230" y="890" as="sourcePoint" />
            <mxPoint x="70" y="770" as="targetPoint" />
            <Array as="points" />
          </mxGeometry>
        </mxCell>
        <mxCell id="TGGjeGu5kXZOAXNkHodr-39" value="No" style="edgeLabel;html=1;align=center;verticalAlign=middle;resizable=0;points=[];" parent="TGGjeGu5kXZOAXNkHodr-33" vertex="1" connectable="0">
          <mxGeometry x="0.056" y="2" relative="1" as="geometry">
            <mxPoint as="offset" />
          </mxGeometry>
        </mxCell>
        <mxCell id="TGGjeGu5kXZOAXNkHodr-34" value="" style="endArrow=classic;html=1;rounded=0;exitX=0;exitY=0.5;exitDx=0;exitDy=0;" parent="1" source="TGGjeGu5kXZOAXNkHodr-20" edge="1">
          <mxGeometry width="50" height="50" relative="1" as="geometry">
            <mxPoint x="40" y="710" as="sourcePoint" />
            <mxPoint x="290" y="640" as="targetPoint" />
            <Array as="points">
              <mxPoint x="320" y="560" />
            </Array>
          </mxGeometry>
        </mxCell>
        <mxCell id="TGGjeGu5kXZOAXNkHodr-38" value="No" style="edgeLabel;html=1;align=center;verticalAlign=middle;resizable=0;points=[];" parent="TGGjeGu5kXZOAXNkHodr-34" vertex="1" connectable="0">
          <mxGeometry x="-0.3702" y="1" relative="1" as="geometry">
            <mxPoint as="offset" />
          </mxGeometry>
        </mxCell>
        <mxCell id="TGGjeGu5kXZOAXNkHodr-42" value="" style="endArrow=classic;html=1;rounded=0;exitX=0;exitY=0.5;exitDx=0;exitDy=0;" parent="1" source="TGGjeGu5kXZOAXNkHodr-30" edge="1">
          <mxGeometry width="50" height="50" relative="1" as="geometry">
            <mxPoint x="-80" y="530" as="sourcePoint" />
            <mxPoint x="680" y="320" as="targetPoint" />
            <Array as="points">
              <mxPoint x="130" y="220" />
              <mxPoint x="680" y="220" />
            </Array>
          </mxGeometry>
        </mxCell>
        <mxCell id="TGGjeGu5kXZOAXNkHodr-43" value="Re-enter form info" style="edgeLabel;html=1;align=center;verticalAlign=middle;resizable=0;points=[];" parent="TGGjeGu5kXZOAXNkHodr-42" vertex="1" connectable="0">
          <mxGeometry x="0.129" relative="1" as="geometry">
            <mxPoint as="offset" />
          </mxGeometry>
        </mxCell>
        <mxCell id="TGGjeGu5kXZOAXNkHodr-44" value="" style="endArrow=classic;html=1;rounded=0;exitX=0.5;exitY=1;exitDx=0;exitDy=0;entryX=0;entryY=0.5;entryDx=0;entryDy=0;" parent="1" source="TGGjeGu5kXZOAXNkHodr-30" target="TGGjeGu5kXZOAXNkHodr-54" edge="1">
          <mxGeometry width="50" height="50" relative="1" as="geometry">
            <mxPoint x="120" y="940" as="sourcePoint" />
            <mxPoint x="705" y="965" as="targetPoint" />
            <Array as="points">
              <mxPoint x="210" y="1075" />
            </Array>
          </mxGeometry>
        </mxCell>
        <mxCell id="TGGjeGu5kXZOAXNkHodr-45" value="Cancel enter info" style="edgeLabel;html=1;align=center;verticalAlign=middle;resizable=0;points=[];" parent="TGGjeGu5kXZOAXNkHodr-44" vertex="1" connectable="0">
          <mxGeometry x="0.129" relative="1" as="geometry">
            <mxPoint as="offset" />
          </mxGeometry>
        </mxCell>
        <mxCell id="TGGjeGu5kXZOAXNkHodr-46" value="Register Flow" style="text;html=1;whiteSpace=wrap;strokeColor=none;fillColor=none;align=center;verticalAlign=middle;rounded=0;fontSize=55;fontStyle=5" parent="1" vertex="1">
          <mxGeometry x="140" y="80" width="610" height="90" as="geometry" />
        </mxCell>
        <mxCell id="TGGjeGu5kXZOAXNkHodr-47" value="" style="endArrow=classic;html=1;rounded=0;exitX=0;exitY=0.5;exitDx=0;exitDy=0;" parent="1" source="TGGjeGu5kXZOAXNkHodr-29" edge="1">
          <mxGeometry width="50" height="50" relative="1" as="geometry">
            <mxPoint x="440" y="850" as="sourcePoint" />
            <mxPoint x="290" y="640" as="targetPoint" />
            <Array as="points">
              <mxPoint x="330" y="820" />
            </Array>
          </mxGeometry>
        </mxCell>
        <mxCell id="TGGjeGu5kXZOAXNkHodr-48" value="No" style="edgeLabel;html=1;align=center;verticalAlign=middle;resizable=0;points=[];" parent="TGGjeGu5kXZOAXNkHodr-47" vertex="1" connectable="0">
          <mxGeometry x="-0.1551" relative="1" as="geometry">
            <mxPoint as="offset" />
          </mxGeometry>
        </mxCell>
        <mxCell id="TGGjeGu5kXZOAXNkHodr-49" value="Yes" style="endArrow=classic;html=1;rounded=0;exitX=0.5;exitY=1;exitDx=0;exitDy=0;entryX=0.5;entryY=0;entryDx=0;entryDy=0;" parent="1" source="TGGjeGu5kXZOAXNkHodr-22" target="TGGjeGu5kXZOAXNkHodr-29" edge="1">
          <mxGeometry width="50" height="50" relative="1" as="geometry">
            <mxPoint x="440" y="1090" as="sourcePoint" />
            <mxPoint x="340" y="840" as="targetPoint" />
            <Array as="points" />
          </mxGeometry>
        </mxCell>
        <mxCell id="TGGjeGu5kXZOAXNkHodr-50" value="No" style="edgeLabel;html=1;align=center;verticalAlign=middle;resizable=0;points=[];" parent="TGGjeGu5kXZOAXNkHodr-49" vertex="1" connectable="0">
          <mxGeometry x="-0.1551" relative="1" as="geometry">
            <mxPoint as="offset" />
          </mxGeometry>
        </mxCell>
        <mxCell id="TGGjeGu5kXZOAXNkHodr-51" value="" style="endArrow=classic;html=1;rounded=0;exitX=0.5;exitY=1;exitDx=0;exitDy=0;" parent="1" source="TGGjeGu5kXZOAXNkHodr-29" target="TGGjeGu5kXZOAXNkHodr-53" edge="1">
          <mxGeometry width="50" height="50" relative="1" as="geometry">
            <mxPoint x="430" y="1080" as="sourcePoint" />
            <mxPoint x="720" y="950" as="targetPoint" />
            <Array as="points">
              <mxPoint x="510" y="950" />
              <mxPoint x="650" y="950" />
            </Array>
          </mxGeometry>
        </mxCell>
        <mxCell id="TGGjeGu5kXZOAXNkHodr-52" value="Yes" style="edgeLabel;html=1;align=center;verticalAlign=middle;resizable=0;points=[];" parent="TGGjeGu5kXZOAXNkHodr-51" vertex="1" connectable="0">
          <mxGeometry x="-0.1551" relative="1" as="geometry">
            <mxPoint x="-34" as="offset" />
          </mxGeometry>
        </mxCell>
        <mxCell id="TGGjeGu5kXZOAXNkHodr-53" value="Process create new account" style="shape=process;whiteSpace=wrap;html=1;backgroundOutline=1;" parent="1" vertex="1">
          <mxGeometry x="550" y="930" width="120" height="60" as="geometry" />
        </mxCell>
        <mxCell id="TGGjeGu5kXZOAXNkHodr-54" value="" style="ellipse;html=1;shape=endState;fillColor=#000000;strokeColor=#ff0000;" parent="1" vertex="1">
          <mxGeometry x="705" y="1060" width="30" height="30" as="geometry" />
        </mxCell>
        <mxCell id="TGGjeGu5kXZOAXNkHodr-59" value="" style="endArrow=classic;html=1;rounded=0;entryX=0.5;entryY=0;entryDx=0;entryDy=0;exitX=0.5;exitY=1;exitDx=0;exitDy=0;" parent="1" source="TGGjeGu5kXZOAXNkHodr-53" target="TGGjeGu5kXZOAXNkHodr-54" edge="1">
          <mxGeometry width="50" height="50" relative="1" as="geometry">
            <mxPoint x="270" y="940" as="sourcePoint" />
            <mxPoint x="320" y="890" as="targetPoint" />
          </mxGeometry>
        </mxCell>
      </root>
    </mxGraphModel>
  </diagram>
</mxfile>
